<svg xmlns="http://www.w3.org/2000/svg" viewBox="0 0 640 200" width="640" height="200"><polygon points="28,40 122,40 130,48 130,152 122,160 28,160 20,152 20,48" fill="none" stroke="#000" stroke-width="1.5" stroke-linejoin="miter"/><rect x="36" y="56" width="78" height="24" fill="none" stroke="#000" stroke-width="1.5" stroke-linejoin="miter"/><rect x="44" y="64" width="30" height="8" fill="#000"/><rect x="36" y="88" width="78" height="24" fill="none" stroke="#000" stroke-width="1.5" stroke-linejoin="miter"/><rect x="44" y="96" width="30" height="8" fill="#000"/><rect x="36" y="120" width="78" height="24" fill="none" stroke="#000" stroke-width="1.5" stroke-linejoin="miter"/><rect x="44" y="128" width="30" height="8" fill="#000"/><polyline points="130,100 178,100" fill="none" stroke="#000" stroke-width="1.5" stroke-linejoin="miter"/><polyline points="172.34,105.66 178,100 172.34,94.34" fill="none" stroke="#000" stroke-width="1.5" stroke-linejoin="miter"/><polygon points="186,50 280,50 288,58 288,142 280,150 186,150 178,142 178,58" fill="none" stroke="#000" stroke-width="1.5" stroke-linejoin="miter"/><polyline points="214,98 214,76 222,68 244,68 252,76 252,98" fill="none" stroke="#000" stroke-width="1.5" stroke-linejoin="miter"/><rect x="206" y="98" width="54" height="36" fill="none" stroke="#000" stroke-width="1.5" stroke-linejoin="miter"/><rect x="230" y="108" width="6" height="14" fill="#000"/><polyline points="288,100 336,100" fill="none" stroke="#000" stroke-width="1.5" stroke-linejoin="miter"/><polyline points="330.34,105.66 336,100 330.34,94.34" fill="none" stroke="#000" stroke-width="1.5" stroke-linejoin="miter"/><polygon points="336,40 410,40 430,60 430,160 336,160" fill="none" stroke="#000" stroke-width="1.5" stroke-linejoin="miter"/><polyline points="410,40 410,60 430,60" fill="none" stroke="#000" stroke-width="1.5" stroke-linejoin="miter"/><rect x="350" y="76" width="60" height="4" fill="#000"/><rect x="350" y="92" width="44" height="4" fill="#000"/><rect x="350" y="108" width="66" height="4" fill="#000"/><rect x="350" y="124" width="38" height="4" fill="#000"/><rect x="350" y="140" width="56" height="4" fill="#000"/><polyline points="430,100 478,100" fill="none" stroke="#000" stroke-width="1.5" stroke-linejoin="miter"/><polyline points="472.34,105.66 478,100 472.34,94.34" fill="none" stroke="#000" stroke-width="1.5" stroke-linejoin="miter"/><polygon points="486,40 610,40 618,48 618,152 610,160 486,160 478,152 478,48" fill="none" stroke="#000" stroke-width="1.5" stroke-linejoin="miter"/><rect x="522" y="74" width="52" height="52" fill="none" stroke="#000" stroke-width="1.5" stroke-linejoin="miter"/><polyline points="528,69 528,74" fill="none" stroke="#000" stroke-width="1"/><polyline points="528,126 528,131" fill="none" stroke="#000" stroke-width="1"/><polyline points="534,69 534,74" fill="none" stroke="#000" stroke-width="1"/><polyline points="534,126 534,131" fill="none" stroke="#000" stroke-width="1"/><polyline points="540,69 540,74" fill="none" stroke="#000" stroke-width="1"/><polyline points="540,126 540,131" fill="none" stroke="#000" stroke-width="1"/><polyline points="546,69 546,74" fill="none" stroke="#000" stroke-width="1"/><polyline points="546,126 546,131" fill="none" stroke="#000" stroke-width="1"/><polyline points="552,69 552,74" fill="none" stroke="#000" stroke-width="1"/><polyline points="552,126 552,131" fill="none" stroke="#000" stroke-width="1"/><polyline points="558,69 558,74" fill="none" stroke="#000" stroke-width="1"/><polyline points="558,126 558,131" fill="none" stroke="#000" stroke-width="1"/><polyline points="564,69 564,74" fill="none" stroke="#000" stroke-width="1"/><polyline points="564,126 564,131" fill="none" stroke="#000" stroke-width="1"/><polyline points="517,80 522,80" fill="none" stroke="#000" stroke-width="1"/><polyline points="574,80 579,80" fill="none" stroke="#000" stroke-width="1"/><polyline points="517,86 522,86" fill="none" stroke="#000" stroke-width="1"/><polyline points="574,86 579,86" fill="none" stroke="#000" stroke-width="1"/><polyline points="517,92 522,92" fill="none" stroke="#000" stroke-width="1"/><polyline points="574,92 579,92" fill="none" stroke="#000" stroke-width="1"/><polyline points="517,98 522,98" fill="none" stroke="#000" stroke-width="1"/><polyline points="574,98 579,98" fill="none" stroke="#000" stroke-width="1"/><polyline points="517,104 522,104" fill="none" stroke="#000" stroke-width="1"/><polyline points="574,104 579,104" fill="none" stroke="#000" stroke-width="1"/><polyline points="517,110 522,110" fill="none" stroke="#000" stroke-width="1"/><polyline points="574,110 579,110" fill="none" stroke="#000" stroke-width="1"/><polyline points="517,116 522,116" fill="none" stroke="#000" stroke-width="1"/><polyline points="574,116 579,116" fill="none" stroke="#000" stroke-width="1"/><circle cx="529" cy="81" r="2" fill="#000"/><rect x="492" y="48" width="6" height="6" fill="none" stroke="#000" stroke-width="1"/><rect x="502" y="48" width="6" height="6" fill="none" stroke="#000" stroke-width="1"/><rect x="512" y="48" width="6" height="6" fill="none" stroke="#000" stroke-width="1"/><rect x="522" y="48" width="6" height="6" fill="none" stroke="#000" stroke-width="1"/><rect x="532" y="48" width="6" height="6" fill="none" stroke="#000" stroke-width="1"/><rect x="542" y="48" width="6" height="6" fill="none" stroke="#000" stroke-width="1"/><rect x="552" y="48" width="6" height="6" fill="none" stroke="#000" stroke-width="1"/><rect x="562" y="48" width="6" height="6" fill="none" stroke="#000" stroke-width="1"/><rect x="572" y="48" width="6" height="6" fill="none" stroke="#000" stroke-width="1"/><rect x="582" y="48" width="6" height="6" fill="none" stroke="#000" stroke-width="1"/><rect x="592" y="48" width="6" height="6" fill="none" stroke="#000" stroke-width="1"/><rect x="602" y="48" width="6" height="6" fill="none" stroke="#000" stroke-width="1"/><rect x="492" y="146" width="6" height="6" fill="none" stroke="#000" stroke-width="1"/><rect x="502" y="146" width="6" height="6" fill="none" stroke="#000" stroke-width="1"/><rect x="512" y="146" width="6" height="6" fill="none" stroke="#000" stroke-width="1"/><rect x="522" y="146" width="6" height="6" fill="none" stroke="#000" stroke-width="1"/><rect x="532" y="146" width="6" height="6" fill="none" stroke="#000" stroke-width="1"/><rect x="542" y="146" width="6" height="6" fill="none" stroke="#000" stroke-width="1"/><rect x="552" y="146" width="6" height="6" fill="none" stroke="#000" stroke-width="1"/><rect x="562" y="146" width="6" height="6" fill="none" stroke="#000" stroke-width="1"/><rect x="572" y="146" width="6" height="6" fill="none" stroke="#000" stroke-width="1"/><rect x="582" y="146" width="6" height="6" fill="none" stroke="#000" stroke-width="1"/><rect x="592" y="146" width="6" height="6" fill="none" stroke="#000" stroke-width="1"/><rect x="602" y="146" width="6" height="6" fill="none" stroke="#000" stroke-width="1"/></svg>
